<svg height="200px" width="200px" version="1.1" id="Layer_1" xmlns="http://www.w3.org/2000/svg" style="transform: rotate(180deg);" xmlns:xlink="http://www.w3.org/1999/xlink" viewBox="0 0 512 512" xml:space="preserve" fill="#000000"><g id="SVGRepo_bgCarrier" stroke-width="0"></g><g id="SVGRepo_tracerCarrier" stroke-linecap="round" stroke-linejoin="round"></g><g id="SVGRepo_iconCarrier"> <path style="fill:#56565C;" d="M160.535,34.658C160.535,15.517,145.019,0,125.877,0S91.221,15.517,91.221,34.658 c0,11.934,6.033,22.458,15.215,28.691v429.208c0,10.738,8.705,19.443,19.443,19.443s19.443-8.705,19.443-19.443V63.349 C154.502,57.115,160.535,46.591,160.535,34.658z"></path> <path style="fill:#FDBF00;" d="M401.322,319.15H106.436V78.72h294.417c18.238,0,26.231,21.179,14.218,33.191l-87.023,87.023 l86.694,86.694C427.641,298.531,418.301,319.15,401.322,319.15z"></path> <path style="fill:#FF9800;" d="M328.046,198.935l87.023-87.023c12.013-12.012,4.021-33.191-14.218-33.191h-154.58v240.43h155.05 c16.979,0,26.321-20.619,13.418-33.521L328.046,198.935z"></path> </g></svg>