<!DOCTYPE svg PUBLIC "-//W3C//DTD SVG 1.1//EN" "http://www.w3.org/Graphics/SVG/1.1/DTD/svg11.dtd">
<!-- Uploaded to: SVG Repo, www.svgrepo.com, Transformed by: SVG Repo Mixer Tools -->
<svg width="800px" height="800px" viewBox="0 0 400 400" fill="none" xmlns="http://www.w3.org/2000/svg">
<g id="SVGRepo_bgCarrier" stroke-width="0"/>
<g id="SVGRepo_tracerCarrier" stroke-linecap="round" stroke-linejoin="round"/>
<g id="SVGRepo_iconCarrier"> <path d="M105.425 113.816C207.265 13.9138 375.656 143.948 323.617 248.006C294.181 306.867 210.189 336.024 197.51 259.962C190.692 219.06 244.058 189.557 212.73 142.574C180.855 94.7703 96.5862 121.023 84.4479 181.703C67.9765 264.045 136.998 336.408 220.34 319.743" stroke="#EDDCD2" stroke-opacity="0.9" stroke-width="16" stroke-linecap="round" stroke-linejoin="round"/> <path d="M166.322 158.582C166.635 156.978 166.947 155.375 167.26 153.771" stroke="#EDDCD2" stroke-opacity="0.9" stroke-width="16" stroke-linecap="round" stroke-linejoin="round"/> <path fill-rule="evenodd" clip-rule="evenodd" d="M144.541 153.771C144.541 152.984 145.744 149.747 145.744 148.96L144.541 153.771Z" stroke="#EDDCD2" stroke-opacity="0.9" stroke-width="16" stroke-linecap="round" stroke-linejoin="round"/> <path d="M268.422 268.03C268.856 266.034 269.088 265.254 269.625 263.219" stroke="#EDDCD2" stroke-opacity="0.9" stroke-width="16" stroke-linecap="round" stroke-linejoin="round"/> <path d="M246.773 260.813C248.059 259.37 248.377 257.606 249.179 256.002" stroke="#EDDCD2" stroke-opacity="0.9" stroke-width="16" stroke-linecap="round" stroke-linejoin="round"/> </g>
</svg>