<!DOCTYPE svg PUBLIC "-//W3C//DTD SVG 1.1//EN" "http://www.w3.org/Graphics/SVG/1.1/DTD/svg11.dtd">
<!-- Uploaded to: ICON Repo, www.svgrepo.com, Transformed by: ICON Repo Mixer Tools -->
<svg fill="#A5A58D" width="800px" height="800px" version="1.1" viewBox="144 144 512 512" xmlns="http://www.w3.org/2000/svg" stroke="#A5A58D" stroke-width="0.00512">
<g id="SVGRepo_bgCarrier" stroke-width="0"/>
<g id="SVGRepo_tracerCarrier" stroke-linecap="round" stroke-linejoin="round" stroke="#000000" stroke-width="46.08"> <g> <path d="m249.16 324.12c-20.125-0.011719-39.43 7.9688-53.668 22.191-14.242 14.227-22.246 33.523-22.254 53.648s7.9766 39.43 22.203 53.668c14.227 14.234 33.527 22.234 53.652 22.238s39.43-7.9844 53.664-22.215c14.23-14.23 22.227-33.531 22.227-53.656 0-20.117-7.9844-39.406-22.203-53.633-14.219-14.23-33.504-22.23-53.621-22.242zm0 121.52c-12.105 0.011719-23.727-4.7852-32.297-13.34-8.5664-8.5547-13.387-20.164-13.398-32.273-0.007813-12.109 4.7969-23.723 13.352-32.289 8.5586-8.5703 20.168-13.383 32.277-13.391 12.109-0.003906 23.723 4.8047 32.289 13.363 8.5625 8.5625 13.375 20.176 13.375 32.285-0.015625 12.09-4.8203 23.688-13.367 32.242-8.5469 8.5547-20.137 13.375-32.23 13.402z"/> <path d="m626.71 400c0 67.613-54.809 122.43-122.43 122.43-67.613 0-122.42-54.812-122.42-122.43 0-67.617 54.809-122.43 122.42-122.43 67.617 0 122.43 54.809 122.43 122.43"/> </g> </g>
<g id="SVGRepo_iconCarrier"> <g> <path d="m249.16 324.12c-20.125-0.011719-39.43 7.9688-53.668 22.191-14.242 14.227-22.246 33.523-22.254 53.648s7.9766 39.43 22.203 53.668c14.227 14.234 33.527 22.234 53.652 22.238s39.43-7.9844 53.664-22.215c14.23-14.23 22.227-33.531 22.227-53.656 0-20.117-7.9844-39.406-22.203-53.633-14.219-14.23-33.504-22.23-53.621-22.242zm0 121.52c-12.105 0.011719-23.727-4.7852-32.297-13.34-8.5664-8.5547-13.387-20.164-13.398-32.273-0.007813-12.109 4.7969-23.723 13.352-32.289 8.5586-8.5703 20.168-13.383 32.277-13.391 12.109-0.003906 23.723 4.8047 32.289 13.363 8.5625 8.5625 13.375 20.176 13.375 32.285-0.015625 12.09-4.8203 23.688-13.367 32.242-8.5469 8.5547-20.137 13.375-32.23 13.402z"/> <path d="m626.71 400c0 67.613-54.809 122.43-122.43 122.43-67.613 0-122.42-54.812-122.42-122.43 0-67.617 54.809-122.43 122.42-122.43 67.617 0 122.43 54.809 122.43 122.43"/> </g> </g>
</svg>