<?xml version="1.0" encoding="UTF-8"?>
<!-- Uploaded to: ICON Repo, www.svgrepo.com, Generator: ICON Repo Mixer Tools -->
<svg fill="#000000" width="800px" height="800px" version="1.1" viewBox="144 144 512 512" xmlns="http://www.w3.org/2000/svg">
 <g>
  <path d="m336.63 581.95h126.75v16.484h-126.75z"/>
  <path d="m608.34 395.45-38.633-107.17c9.7656-8.8867 15.227-16.031 15.82-16.828 0.96875-1.3008 1.4805-2.8828 1.4805-4.5039v-17.199c0-2.9219-1.6836-5.582-4.332-6.832-2.6602-1.2578-5.7852-0.84766-8.0312 0.99609-26.359 21.676-55.871 32.676-87.684 32.676-28.496 0-52.215-8.9766-64.609-14.812 4.4023-5.6445 6.9531-12.887 6.9531-20.496 0-17.543-13.16-31.809-29.32-31.809-16.172 0-29.332 14.27-29.332 31.809 0 7.6094 2.5586 14.852 6.9609 20.496-12.402 5.8359-36.113 14.801-64.609 14.812-31.82 0-61.312-10.992-87.684-32.676-2.2422-1.8516-5.3789-2.2461-8.0078-0.99609-2.6406 1.25-4.332 3.9102-4.332 6.832v17.199c0 1.6211 0.52344 3.1953 1.4805 4.5039 0.59375 0.79688 6.0547 7.9414 15.82 16.828l-38.641 107.17h-27.137v7.5586c0 37.969 36.305 68.852 80.934 68.852 44.617 0 80.922-30.883 80.922-68.852v-7.5586h-27.137l-29.078-80.66c15.961 7.2969 35.145 12.555 57.293 12.555 18.32 0 37.09-3.6875 55.965-10.973v111.28c-3.457 5.0391-5.3906 11.547-5.3906 18.289v98.02c-23.426 3.9102-37.684 13.645-37.684 26.078 0 4.1719 3.3867 7.5586 7.5586 7.5586h104.21c0.070313-0.011719 0.15234-0.011719 0.20312 0 4.1797 0 7.5586-3.3867 7.5586-7.5586 0-0.82812-0.13281-1.6211-0.37109-2.3594-1.6914-11.305-15.586-20.062-37.504-23.719v-98.012c0-6.7617-1.9336-13.25-5.3906-18.289l-0.011719-111.3c18.871 7.2969 37.645 10.973 55.965 10.973 22.148 0 41.332-5.2617 57.293-12.543l-29.07 80.66h-27.137v7.5586c0 9.7148 2.4102 18.953 6.6914 27.348 0.070312 0.17969 0.19141 0.3125 0.27344 0.48438 12.594 24.133 40.98 41.02 73.961 41.02 44.629 0 80.922-30.883 80.922-68.852v-7.5586zm-362.9 61.301c-9.4219 0-18.277-1.7734-26.391-4.6953h19.426c4.1719 0 7.5586-3.3867 7.5586-7.5586 0-4.1719-3.3867-7.5586-7.5586-7.5586l-43.98 0.003906c-7.4258-7.418-12.504-16.453-14.219-26.371h130.32c-4.5117 26.07-32.012 46.18-65.16 46.18zm37.723-61.301h-30.168v-48.637c0-4.1719-3.3867-7.5586-7.5586-7.5586s-7.5586 3.3867-7.5586 7.5586v48.637h-30.164l34.973-97.004c2.3164 1.7227 4.7656 3.4258 7.3555 5.1289zm129.02-97.348c-2.3359-1.0664-5.0664-0.875-7.2344 0.51562-2.168 1.3906-3.4766 3.7891-3.4766 6.3594v125.24c0 1.8438 0.66406 3.6055 1.8828 4.9883 2.207 2.5 3.5156 6.5078 3.5156 10.73v104.59c0 3.8477 2.8906 7.082 6.7109 7.5078 8.4844 0.95703 15.062 2.6211 19.93 4.4336h-67.008c4.8672-1.8242 11.438-3.4883 19.922-4.4336 3.8203-0.42188 6.7227-3.6562 6.7227-7.5078v-104.59c0-4.2109 1.3086-8.2227 3.5156-10.742 1.2109-1.3789 1.875-3.1523 1.875-4.9766l0.003906-105.98v-38.289c0-4.1719-3.3867-7.5586-7.5586-7.5586s-7.5586 3.3867-7.5586 7.5586v13.926c-18.973 8.082-37.777 12.344-55.965 12.344-53.324 0-88.41-35.379-98.113-46.492 25.613 17.242 53.688 25.965 83.691 25.965 46.512 0 80.539-21.121 81.969-22.016 2.2969-1.4492 3.6367-4.0195 3.5156-6.7305-0.12109-2.7109-1.6914-5.1484-4.1094-6.3867-5.2383-2.6719-8.6133-8.6641-8.6133-15.285 0-9.2109 6.3789-16.695 14.219-16.695 7.8281 0 14.207 7.4883 14.207 16.695 0 6.6094-3.3867 12.605-8.6055 15.285-2.418 1.2383-3.9883 3.6797-4.1094 6.3867-0.12109 2.7109 1.2188 5.2812 3.5156 6.7305 1.4219 0.89844 35.449 22.016 81.969 22.016 30.016 0 58.121-8.7344 83.742-25.996-9.6016 11.062-44.547 46.523-98.164 46.523-19.613 0.011718-39.926-4.7461-60.391-14.117zm134.82 13.652v68.762c0 4.1719 3.3867 7.5586 7.5586 7.5586s7.5586-3.3867 7.5586-7.5586v-68.77l30.168 83.703h-75.461zm7.5586 145c-21.543 0-40.566-8.5664-52.578-21.664h44.355c4.1719 0 7.5586-3.3867 7.5586-7.5586 0-4.1719-3.3867-7.5586-7.5586-7.5586h-54.219c-1.2305-3.0234-2.1562-6.168-2.7109-9.4023h130.32c-4.5234 26.074-32.023 46.184-65.172 46.184z"/>
  <path d="m255.08 435.07h35.348c4.1719 0 7.5586-3.3867 7.5586-7.5586s-3.3867-7.5586-7.5586-7.5586h-35.348c-4.1719 0-7.5586 3.3867-7.5586 7.5586 0.003906 4.1719 3.3867 7.5586 7.5586 7.5586z"/>
 </g>
</svg>