<?xml version="1.0" encoding="UTF-8"?>
<!-- Uploaded to: ICON Repo, www.svgrepo.com, Generator: ICON Repo Mixer Tools -->
<svg fill="#000000" width="800px" height="800px" version="1.1" viewBox="144 144 512 512" xmlns="http://www.w3.org/2000/svg">
 <g>
  <path d="m463.71 436.35-113.05-206.87c-35.156-55.82-85.266-50.805-85.273-50.812l-3.8789 0.39453-2.0352 3.2461c-1.0977 1.7539-26.461 43.457 7.2266 99.434l133.52 193.7zm-192.83-242.1c11.84 0.52344 42.691 5.7227 66.281 43.145l105.67 193.4-12.402 7.6367-95.422-154.99-13.34 8.2109 95.41 155-12.402 7.6367-124.8-181.06c-23.336-38.77-13.594-68.867-8.9883-78.984z"/>
  <path d="m549.54 582.11-7.8594-12.766c-0.17969-0.35156-0.39453-0.70703-0.64453-1.0391-5.5-7.5156-13.504-12.363-22.41-13.723l-32.777-53.262 23.902-14.711c16.473-10.148 21.785-31.871 12.465-48.727-0.14062-0.38281-0.44141-1.1875-1.0273-2.0977-0.83594-1.5117-2.1367-2.6914-3.7266-3.3867-0.90625-0.39453-9.2109-3.8789-18.359-3.8789-5.4219 0-10.156 1.2188-14.066 3.6289l-98.133 60.418c-12.785 7.8711-14.27 26.914-14.391 29.059-0.10156 1.5938 0.30078 3.1836 1.1289 4.5352 0.050781 0.082031 0.10156 0.16016 0.16016 0.24219 0.039063 0.058593 0.070313 0.12109 0.10938 0.19141 0.28125 0.47266 0.49219 0.70703 0.875 1.1094 7.1523 10.449 18.781 16.676 31.094 16.676 6.5508 0 12.949-1.8047 18.512-5.2188l23.902-14.711 32.789 53.262c-2.8008 8.5664-2.0352 17.965 2.4688 26.73l8.1836 13.27c1.4805 2.3984 4.0508 3.7188 6.6797 3.7188 1.4023 0 2.8125-0.37109 4.1016-1.1602l44.508-27.398c1.7617-1.0898 3.0312-2.832 3.5078-4.8555 0.4375-2.0078 0.10547-4.1328-0.99219-5.9062zm-48.629 20.738-3.75-6.0664c-2.6914-5.2695-2.8125-11.266-0.32422-16.434 1.1484-2.4102 1.0078-5.2305-0.38281-7.5078l-38.953-63.277c-1.0898-1.7617-2.832-3.0312-4.8555-3.5078-0.60547-0.14062-1.2109-0.21094-1.8125-0.21094-1.4414 0-2.8633 0.39453-4.1094 1.1602l-30.562 18.824c-8.6953 5.3398-20.789 2.8516-27.711-5.9453 0.76562-4.7266 2.8398-11.648 6.6484-13.984l98.141-60.406c3.4453-2.1367 11.578-0.86719 15.508 0.38281 4.8281 10.027 1.793 21.844-7.2031 27.398l-30.57 18.824c-3.6797 2.2656-4.8281 7.082-2.5586 10.781l38.945 63.27c1.4023 2.2656 3.8398 3.668 6.5078 3.7188 5.582 0.10938 10.742 2.7617 14.238 7.2969l4.0117 6.5195z"/>
 </g>
</svg>